<mxfile host="app.diagrams.net" modified="2023-12-10T03:41:58.331Z" agent="Mozilla/5.0 (Macintosh; Intel Mac OS X 10_15_7) AppleWebKit/537.36 (KHTML, like Gecko) Chrome/119.0.0.0 Safari/537.36" etag="A-nzEv2iX3Of-HnxEfPx" version="22.1.5" type="google">
  <diagram name="Page-1" id="XicSjOLYE2BhrL9O-2e7">
    <mxGraphModel grid="1" page="1" gridSize="10" guides="1" tooltips="1" connect="1" arrows="1" fold="1" pageScale="1" pageWidth="827" pageHeight="1169" math="0" shadow="0">
      <root>
        <mxCell id="0" />
        <mxCell id="1" parent="0" />
        <mxCell id="OjM6AyPs0dcqeUElmuwR-2" style="edgeStyle=orthogonalEdgeStyle;rounded=0;orthogonalLoop=1;jettySize=auto;html=1;endArrow=none;endFill=0;" edge="1" parent="1" source="OjM6AyPs0dcqeUElmuwR-3" target="OjM6AyPs0dcqeUElmuwR-14">
          <mxGeometry relative="1" as="geometry">
            <Array as="points">
              <mxPoint x="390" y="300" />
            </Array>
          </mxGeometry>
        </mxCell>
        <mxCell id="OjM6AyPs0dcqeUElmuwR-3" value="Guests" style="swimlane;fontStyle=0;childLayout=stackLayout;horizontal=1;startSize=26;fillColor=none;horizontalStack=0;resizeParent=1;resizeParentMax=0;resizeLast=0;collapsible=1;marginBottom=0;whiteSpace=wrap;html=1;" vertex="1" parent="1">
          <mxGeometry x="160" y="242" width="140" height="130" as="geometry" />
        </mxCell>
        <mxCell id="OjM6AyPs0dcqeUElmuwR-4" value="guestID {PK}&lt;br&gt;userID {FK}&lt;br&gt;checkInTimestamp&lt;br&gt;checkOutTimestamp&lt;br&gt;buildingID {FK}&lt;br&gt;roomID {FK}" style="text;strokeColor=none;fillColor=none;align=left;verticalAlign=top;spacingLeft=4;spacingRight=4;overflow=hidden;rotatable=0;points=[[0,0.5],[1,0.5]];portConstraint=eastwest;whiteSpace=wrap;html=1;" vertex="1" parent="OjM6AyPs0dcqeUElmuwR-3">
          <mxGeometry y="26" width="140" height="104" as="geometry" />
        </mxCell>
        <mxCell id="OjM6AyPs0dcqeUElmuwR-5" value="Users" style="swimlane;fontStyle=0;childLayout=stackLayout;horizontal=1;startSize=40;fillColor=none;horizontalStack=0;resizeParent=1;resizeParentMax=0;resizeLast=0;collapsible=1;marginBottom=0;whiteSpace=wrap;html=1;" vertex="1" parent="1">
          <mxGeometry x="346" y="-140" width="140" height="253" as="geometry" />
        </mxCell>
        <mxCell id="OjM6AyPs0dcqeUElmuwR-7" value="" style="endArrow=block;endSize=16;endFill=0;html=1;rounded=0;entryX=0.453;entryY=1.023;entryDx=0;entryDy=0;entryPerimeter=0;" edge="1" parent="1" target="OjM6AyPs0dcqeUElmuwR-6">
          <mxGeometry width="160" relative="1" as="geometry">
            <mxPoint x="410" y="200" as="sourcePoint" />
            <mxPoint x="410" y="150" as="targetPoint" />
          </mxGeometry>
        </mxCell>
        <mxCell id="OjM6AyPs0dcqeUElmuwR-8" value="" style="endArrow=none;html=1;rounded=0;" edge="1" parent="1">
          <mxGeometry width="50" height="50" relative="1" as="geometry">
            <mxPoint x="240" y="200" as="sourcePoint" />
            <mxPoint x="580" y="200" as="targetPoint" />
          </mxGeometry>
        </mxCell>
        <mxCell id="OjM6AyPs0dcqeUElmuwR-9" value="" style="endArrow=none;html=1;rounded=0;" edge="1" parent="1">
          <mxGeometry width="50" height="50" relative="1" as="geometry">
            <mxPoint x="240" y="240" as="sourcePoint" />
            <mxPoint x="240" y="200" as="targetPoint" />
          </mxGeometry>
        </mxCell>
        <mxCell id="OjM6AyPs0dcqeUElmuwR-10" value="" style="endArrow=none;html=1;rounded=0;" edge="1" parent="1">
          <mxGeometry width="50" height="50" relative="1" as="geometry">
            <mxPoint x="580" y="240" as="sourcePoint" />
            <mxPoint x="580" y="200" as="targetPoint" />
            <Array as="points">
              <mxPoint x="580" y="230" />
            </Array>
          </mxGeometry>
        </mxCell>
        <mxCell id="OjM6AyPs0dcqeUElmuwR-11" value="{mandatory, or}" style="text;html=1;align=center;verticalAlign=middle;resizable=0;points=[];autosize=1;strokeColor=none;fillColor=none;" vertex="1" parent="1">
          <mxGeometry x="450" y="170" width="100" height="30" as="geometry" />
        </mxCell>
        <mxCell id="OjM6AyPs0dcqeUElmuwR-12" value="Staffs" style="swimlane;fontStyle=0;childLayout=stackLayout;horizontal=1;startSize=26;fillColor=none;horizontalStack=0;resizeParent=1;resizeParentMax=0;resizeLast=0;collapsible=1;marginBottom=0;whiteSpace=wrap;html=1;" vertex="1" parent="1">
          <mxGeometry x="520" y="240" width="140" height="110" as="geometry" />
        </mxCell>
        <mxCell id="OjM6AyPs0dcqeUElmuwR-13" value="staffID {PK}&lt;br&gt;userID {FK}&lt;br&gt;shift" style="text;strokeColor=none;fillColor=none;align=left;verticalAlign=top;spacingLeft=4;spacingRight=4;overflow=hidden;rotatable=0;points=[[0,0.5],[1,0.5]];portConstraint=eastwest;whiteSpace=wrap;html=1;" vertex="1" parent="OjM6AyPs0dcqeUElmuwR-12">
          <mxGeometry y="26" width="140" height="84" as="geometry" />
        </mxCell>
        <mxCell id="OjM6AyPs0dcqeUElmuwR-14" value="Package" style="swimlane;fontStyle=0;childLayout=stackLayout;horizontal=1;startSize=26;fillColor=none;horizontalStack=0;resizeParent=1;resizeParentMax=0;resizeLast=0;collapsible=1;marginBottom=0;whiteSpace=wrap;html=1;" vertex="1" parent="1">
          <mxGeometry x="360" y="446.5" width="150" height="190" as="geometry" />
        </mxCell>
        <mxCell id="OjM6AyPs0dcqeUElmuwR-15" value="packageID {PK}&lt;br&gt;type&amp;nbsp;&lt;br&gt;weight&lt;br&gt;volumeType&lt;br&gt;isFragile&lt;br&gt;guestUserID {FK}&lt;br&gt;guestID {FK}&lt;br&gt;staffUserID {FK}&lt;br&gt;staffID {FK}&lt;br&gt;supplierID {FK}&lt;br&gt;robotID {FK}" style="text;strokeColor=none;fillColor=none;align=left;verticalAlign=top;spacingLeft=4;spacingRight=4;overflow=hidden;rotatable=0;points=[[0,0.5],[1,0.5]];portConstraint=eastwest;whiteSpace=wrap;html=1;" vertex="1" parent="OjM6AyPs0dcqeUElmuwR-14">
          <mxGeometry y="26" width="150" height="164" as="geometry" />
        </mxCell>
        <mxCell id="OjM6AyPs0dcqeUElmuwR-16" value="" style="endArrow=none;html=1;rounded=0;entryX=-0.018;entryY=0.368;entryDx=0;entryDy=0;entryPerimeter=0;" edge="1" parent="1">
          <mxGeometry relative="1" as="geometry">
            <mxPoint x="513.06" y="514.29" as="sourcePoint" />
            <mxPoint x="810.0000000000005" y="515.2820000000002" as="targetPoint" />
          </mxGeometry>
        </mxCell>
        <mxCell id="OjM6AyPs0dcqeUElmuwR-17" value="" style="endArrow=diamondThin;endFill=1;endSize=24;html=1;rounded=0;exitX=1.044;exitY=0.022;exitDx=0;exitDy=0;exitPerimeter=0;" edge="1" parent="1" source="OjM6AyPs0dcqeUElmuwR-22">
          <mxGeometry width="160" relative="1" as="geometry">
            <mxPoint x="204" y="60" as="sourcePoint" />
            <mxPoint x="204" y="240" as="targetPoint" />
          </mxGeometry>
        </mxCell>
        <mxCell id="OjM6AyPs0dcqeUElmuwR-18" value="EmergencyContact" style="swimlane;fontStyle=0;childLayout=stackLayout;horizontal=1;startSize=26;fillColor=none;horizontalStack=0;resizeParent=1;resizeParentMax=0;resizeLast=0;collapsible=1;marginBottom=0;whiteSpace=wrap;html=1;" vertex="1" parent="1">
          <mxGeometry x="120" y="-100" width="160" height="140" as="geometry" />
        </mxCell>
        <mxCell id="OjM6AyPs0dcqeUElmuwR-19" value="contactID {PK}&lt;br&gt;guestID {FK}&lt;br&gt;userID {FK}&lt;br&gt;firstName&lt;br&gt;lastName&lt;br&gt;email&lt;br&gt;phone" style="text;strokeColor=none;fillColor=none;align=left;verticalAlign=top;spacingLeft=4;spacingRight=4;overflow=hidden;rotatable=0;points=[[0,0.5],[1,0.5]];portConstraint=eastwest;whiteSpace=wrap;html=1;" vertex="1" parent="OjM6AyPs0dcqeUElmuwR-18">
          <mxGeometry y="26" width="160" height="114" as="geometry" />
        </mxCell>
        <mxCell id="OjM6AyPs0dcqeUElmuwR-20" value="has" style="text;html=1;align=center;verticalAlign=middle;resizable=0;points=[];autosize=1;strokeColor=none;fillColor=none;" vertex="1" parent="1">
          <mxGeometry x="164" y="88" width="40" height="30" as="geometry" />
        </mxCell>
        <mxCell id="OjM6AyPs0dcqeUElmuwR-21" value="1..1" style="text;html=1;align=center;verticalAlign=middle;resizable=0;points=[];autosize=1;strokeColor=none;fillColor=none;" vertex="1" parent="1">
          <mxGeometry x="166" y="202" width="38" height="26" as="geometry" />
        </mxCell>
        <mxCell id="OjM6AyPs0dcqeUElmuwR-22" value="1..*" style="text;html=1;align=center;verticalAlign=middle;resizable=0;points=[];autosize=1;strokeColor=none;fillColor=none;" vertex="1" parent="1">
          <mxGeometry x="166" y="44" width="36" height="26" as="geometry" />
        </mxCell>
        <mxCell id="OjM6AyPs0dcqeUElmuwR-23" value="Robot" style="swimlane;fontStyle=0;childLayout=stackLayout;horizontal=1;startSize=26;fillColor=none;horizontalStack=0;resizeParent=1;resizeParentMax=0;resizeLast=0;collapsible=1;marginBottom=0;whiteSpace=wrap;html=1;" vertex="1" parent="1">
          <mxGeometry x="-380" y="530" width="160" height="210" as="geometry" />
        </mxCell>
        <mxCell id="OjM6AyPs0dcqeUElmuwR-24" value="robotID {PK}&lt;br&gt;rModel&lt;br&gt;manufacturer&lt;br&gt;weight&lt;br&gt;weightCapacity&lt;br&gt;volumeType&lt;br&gt;batteryStatus&lt;br&gt;elevatorID{FK}&lt;br&gt;elevatorBuildingID{FK}&lt;br&gt;stationID{FK}&lt;br&gt;stationBuildingID{FK}&lt;br&gt;buildingBuildingID{PK}" style="text;strokeColor=none;fillColor=none;align=left;verticalAlign=top;spacingLeft=4;spacingRight=4;overflow=hidden;rotatable=0;points=[[0,0.5],[1,0.5]];portConstraint=eastwest;whiteSpace=wrap;html=1;" vertex="1" parent="OjM6AyPs0dcqeUElmuwR-23">
          <mxGeometry y="26" width="160" height="184" as="geometry" />
        </mxCell>
        <mxCell id="OjM6AyPs0dcqeUElmuwR-25" value="" style="triangle;whiteSpace=wrap;html=1;fontFamily=Helvetica;fontSize=11;fontColor=default;fillColor=#000000;rotation=-90;container=0;" vertex="1" parent="1">
          <mxGeometry x="177" y="111" width="10" height="10" as="geometry" />
        </mxCell>
        <mxCell id="OjM6AyPs0dcqeUElmuwR-26" value="deliver" style="text;html=1;align=center;verticalAlign=middle;resizable=0;points=[];autosize=1;strokeColor=none;fillColor=none;rotation=270;" vertex="1" parent="1">
          <mxGeometry x="490" y="1570" width="60" height="30" as="geometry" />
        </mxCell>
        <mxCell id="OjM6AyPs0dcqeUElmuwR-27" value="responsible for" style="text;html=1;align=center;verticalAlign=middle;resizable=0;points=[];autosize=1;strokeColor=none;fillColor=none;rotation=0;" vertex="1" parent="1">
          <mxGeometry x="455" y="360" width="97" height="26" as="geometry" />
        </mxCell>
        <mxCell id="OjM6AyPs0dcqeUElmuwR-28" value="receives" style="text;html=1;align=center;verticalAlign=middle;resizable=0;points=[];autosize=1;strokeColor=none;fillColor=none;rotation=0;" vertex="1" parent="1">
          <mxGeometry x="325" y="351.5" width="70" height="30" as="geometry" />
        </mxCell>
        <mxCell id="OjM6AyPs0dcqeUElmuwR-29" value="0..*" style="text;html=1;align=center;verticalAlign=middle;resizable=0;points=[];autosize=1;strokeColor=none;fillColor=none;" vertex="1" parent="1">
          <mxGeometry x="350" y="416.5" width="40" height="30" as="geometry" />
        </mxCell>
        <mxCell id="OjM6AyPs0dcqeUElmuwR-30" value="1..1" style="text;html=1;align=center;verticalAlign=middle;resizable=0;points=[];autosize=1;strokeColor=none;fillColor=none;" vertex="1" parent="1">
          <mxGeometry x="310" y="296.5" width="40" height="30" as="geometry" />
        </mxCell>
        <mxCell id="OjM6AyPs0dcqeUElmuwR-31" value="1..*" style="text;html=1;align=center;verticalAlign=middle;resizable=0;points=[];autosize=1;strokeColor=none;fillColor=none;" vertex="1" parent="1">
          <mxGeometry x="455" y="416.5" width="40" height="30" as="geometry" />
        </mxCell>
        <mxCell id="OjM6AyPs0dcqeUElmuwR-32" value="1..1" style="text;html=1;align=center;verticalAlign=middle;resizable=0;points=[];autosize=1;strokeColor=none;fillColor=none;" vertex="1" parent="1">
          <mxGeometry x="455" y="296.5" width="40" height="30" as="geometry" />
        </mxCell>
        <mxCell id="OjM6AyPs0dcqeUElmuwR-33" value="delivers" style="text;html=1;align=center;verticalAlign=middle;resizable=0;points=[];autosize=1;strokeColor=none;fillColor=none;" vertex="1" parent="1">
          <mxGeometry x="58" y="632" width="60" height="30" as="geometry" />
        </mxCell>
        <mxCell id="OjM6AyPs0dcqeUElmuwR-34" value="0..*" style="text;html=1;align=center;verticalAlign=middle;resizable=0;points=[];autosize=1;strokeColor=none;fillColor=none;" vertex="1" parent="1">
          <mxGeometry x="390" y="643" width="40" height="30" as="geometry" />
        </mxCell>
        <mxCell id="OjM6AyPs0dcqeUElmuwR-35" value="0..1" style="text;html=1;align=center;verticalAlign=middle;resizable=0;points=[];autosize=1;strokeColor=none;fillColor=none;" vertex="1" parent="1">
          <mxGeometry x="-220" y="630" width="40" height="30" as="geometry" />
        </mxCell>
        <mxCell id="OjM6AyPs0dcqeUElmuwR-36" style="edgeStyle=orthogonalEdgeStyle;rounded=0;orthogonalLoop=1;jettySize=auto;html=1;endArrow=none;endFill=0;" edge="1" parent="1">
          <mxGeometry relative="1" as="geometry">
            <mxPoint x="210" y="501.51428571428596" as="sourcePoint" />
            <mxPoint x="360" y="502" as="targetPoint" />
          </mxGeometry>
        </mxCell>
        <mxCell id="OjM6AyPs0dcqeUElmuwR-37" value="" style="triangle;whiteSpace=wrap;html=1;fontFamily=Helvetica;fontSize=11;fontColor=default;fillColor=#000000;rotation=90;container=0;" vertex="1" parent="1">
          <mxGeometry x="464" y="388" width="10" height="10" as="geometry" />
        </mxCell>
        <mxCell id="OjM6AyPs0dcqeUElmuwR-38" value="" style="triangle;whiteSpace=wrap;html=1;fontFamily=Helvetica;fontSize=11;fontColor=default;fillColor=#000000;rotation=90;container=0;" vertex="1" parent="1">
          <mxGeometry x="360" y="381.5" width="10" height="10" as="geometry" />
        </mxCell>
        <mxCell id="OjM6AyPs0dcqeUElmuwR-39" value="ChargingStation" style="swimlane;fontStyle=0;childLayout=stackLayout;horizontal=1;startSize=26;fillColor=none;horizontalStack=0;resizeParent=1;resizeParentMax=0;resizeLast=0;collapsible=1;marginBottom=0;whiteSpace=wrap;html=1;" vertex="1" parent="1">
          <mxGeometry x="-285" y="245" width="140" height="100" as="geometry" />
        </mxCell>
        <mxCell id="OjM6AyPs0dcqeUElmuwR-40" value="stationID {PK}&lt;br&gt;buildingID {FK}&lt;br&gt;powerRating&lt;br&gt;operationalStatus" style="text;strokeColor=none;fillColor=none;align=left;verticalAlign=top;spacingLeft=4;spacingRight=4;overflow=hidden;rotatable=0;points=[[0,0.5],[1,0.5]];portConstraint=eastwest;whiteSpace=wrap;html=1;" vertex="1" parent="OjM6AyPs0dcqeUElmuwR-39">
          <mxGeometry y="26" width="140" height="74" as="geometry" />
        </mxCell>
        <mxCell id="OjM6AyPs0dcqeUElmuwR-41" value="Elevator" style="swimlane;fontStyle=0;childLayout=stackLayout;horizontal=1;startSize=26;fillColor=none;horizontalStack=0;resizeParent=1;resizeParentMax=0;resizeLast=0;collapsible=1;marginBottom=0;whiteSpace=wrap;html=1;" vertex="1" parent="1">
          <mxGeometry x="-520" y="231.5" width="160" height="150" as="geometry" />
        </mxCell>
        <mxCell id="OjM6AyPs0dcqeUElmuwR-43" style="edgeStyle=orthogonalEdgeStyle;rounded=0;orthogonalLoop=1;jettySize=auto;html=1;endArrow=none;endFill=0;entryX=0.487;entryY=1.002;entryDx=0;entryDy=0;entryPerimeter=0;" edge="1" parent="OjM6AyPs0dcqeUElmuwR-41" target="OjM6AyPs0dcqeUElmuwR-42">
          <mxGeometry relative="1" as="geometry">
            <mxPoint x="135.12" y="450.85" as="sourcePoint" />
            <mxPoint x="80" y="173" as="targetPoint" />
            <Array as="points">
              <mxPoint x="140" y="451" />
              <mxPoint x="140" y="409" />
              <mxPoint x="78" y="409" />
            </Array>
          </mxGeometry>
        </mxCell>
        <mxCell id="OjM6AyPs0dcqeUElmuwR-42" value="elevatorID {PK}&lt;br&gt;buildingID {FK}&lt;br&gt;weightCapacity&lt;br&gt;maxRobots&lt;br&gt;sizeType&lt;br&gt;totalWeight" style="text;strokeColor=none;fillColor=none;align=left;verticalAlign=top;spacingLeft=4;spacingRight=4;overflow=hidden;rotatable=0;points=[[0,0.5],[1,0.5]];portConstraint=eastwest;whiteSpace=wrap;html=1;" vertex="1" parent="OjM6AyPs0dcqeUElmuwR-41">
          <mxGeometry y="26" width="160" height="124" as="geometry" />
        </mxCell>
        <mxCell id="OjM6AyPs0dcqeUElmuwR-44" value="Building" style="swimlane;fontStyle=0;childLayout=stackLayout;horizontal=1;startSize=26;fillColor=none;horizontalStack=0;resizeParent=1;resizeParentMax=0;resizeLast=0;collapsible=1;marginBottom=0;whiteSpace=wrap;html=1;" vertex="1" parent="1">
          <mxGeometry x="-290" y="-43" width="150" height="70" as="geometry" />
        </mxCell>
        <mxCell id="OjM6AyPs0dcqeUElmuwR-45" value="buildingID {PK}&lt;br&gt;buildingName" style="text;strokeColor=none;fillColor=none;align=left;verticalAlign=top;spacingLeft=4;spacingRight=4;overflow=hidden;rotatable=0;points=[[0,0.5],[1,0.5]];portConstraint=eastwest;whiteSpace=wrap;html=1;" vertex="1" parent="OjM6AyPs0dcqeUElmuwR-44">
          <mxGeometry y="26" width="150" height="44" as="geometry" />
        </mxCell>
        <mxCell id="OjM6AyPs0dcqeUElmuwR-46" value="1..1" style="resizable=0;html=1;align=left;verticalAlign=bottom;labelBackgroundColor=none;fontFamily=Helvetica;fontSize=11;fontColor=default;direction=south;" connectable="0" vertex="1" parent="1">
          <mxGeometry x="-350" y="-8" as="geometry">
            <mxPoint x="-4" y="26" as="offset" />
          </mxGeometry>
        </mxCell>
        <mxCell id="OjM6AyPs0dcqeUElmuwR-47" value="1..1" style="resizable=0;html=1;align=left;verticalAlign=bottom;labelBackgroundColor=none;fontFamily=Helvetica;fontSize=11;fontColor=default;direction=south;" connectable="0" vertex="1" parent="1">
          <mxGeometry x="-250" y="70" as="geometry" />
        </mxCell>
        <mxCell id="OjM6AyPs0dcqeUElmuwR-48" value="contains" style="text;html=1;align=center;verticalAlign=middle;resizable=0;points=[];autosize=1;strokeColor=none;fillColor=none;" vertex="1" parent="1">
          <mxGeometry x="-500" y="47" width="70" height="30" as="geometry" />
        </mxCell>
        <mxCell id="OjM6AyPs0dcqeUElmuwR-49" value="holds" style="text;html=1;align=center;verticalAlign=middle;resizable=0;points=[];autosize=1;strokeColor=none;fillColor=none;" vertex="1" parent="1">
          <mxGeometry x="-260" y="108.5" width="50" height="30" as="geometry" />
        </mxCell>
        <mxCell id="OjM6AyPs0dcqeUElmuwR-50" value="1..*" style="resizable=0;html=1;align=left;verticalAlign=bottom;labelBackgroundColor=none;fontFamily=Helvetica;fontSize=11;fontColor=default;direction=south;" connectable="0" vertex="1" parent="1">
          <mxGeometry x="-475" y="166" as="geometry" />
        </mxCell>
        <mxCell id="OjM6AyPs0dcqeUElmuwR-51" value="1..*" style="resizable=0;html=1;align=left;verticalAlign=bottom;labelBackgroundColor=none;fontFamily=Helvetica;fontSize=11;fontColor=default;direction=south;" connectable="0" vertex="1" parent="1">
          <mxGeometry x="-240" y="227" as="geometry">
            <mxPoint x="-10" y="12" as="offset" />
          </mxGeometry>
        </mxCell>
        <mxCell id="OjM6AyPs0dcqeUElmuwR-52" value="" style="triangle;whiteSpace=wrap;html=1;fontFamily=Helvetica;fontSize=11;fontColor=default;fillColor=#000000;rotation=90;container=0;" vertex="1" parent="1">
          <mxGeometry x="-460" y="108.5" width="10" height="10" as="geometry" />
        </mxCell>
        <mxCell id="OjM6AyPs0dcqeUElmuwR-53" value="" style="triangle;whiteSpace=wrap;html=1;fontFamily=Helvetica;fontSize=11;fontColor=default;fillColor=#000000;rotation=90;container=0;" vertex="1" parent="1">
          <mxGeometry x="-240" y="147" width="10" height="10" as="geometry" />
        </mxCell>
        <mxCell id="OjM6AyPs0dcqeUElmuwR-54" value="" style="endArrow=diamondThin;endFill=1;endSize=24;html=1;rounded=0;exitX=0.5;exitY=0;exitDx=0;exitDy=0;" edge="1" parent="1" source="OjM6AyPs0dcqeUElmuwR-56">
          <mxGeometry width="160" relative="1" as="geometry">
            <mxPoint x="-150" y="143.75" as="sourcePoint" />
            <mxPoint x="-140" y="-13" as="targetPoint" />
            <Array as="points">
              <mxPoint x="-30" y="-13" />
            </Array>
          </mxGeometry>
        </mxCell>
        <mxCell id="OjM6AyPs0dcqeUElmuwR-55" value="" style="endArrow=diamondThin;endFill=1;endSize=24;html=1;rounded=0;entryX=-0.008;entryY=0.304;entryDx=0;entryDy=0;exitX=0.5;exitY=0;exitDx=0;exitDy=0;entryPerimeter=0;" edge="1" parent="1" source="OjM6AyPs0dcqeUElmuwR-41" target="OjM6AyPs0dcqeUElmuwR-45">
          <mxGeometry width="160" relative="1" as="geometry">
            <mxPoint x="-625" y="44" as="sourcePoint" />
            <mxPoint x="-342.6600000000001" y="8.172000000000025" as="targetPoint" />
            <Array as="points">
              <mxPoint x="-440" y="-3" />
            </Array>
          </mxGeometry>
        </mxCell>
        <mxCell id="OjM6AyPs0dcqeUElmuwR-56" value="Room" style="swimlane;fontStyle=0;childLayout=stackLayout;horizontal=1;startSize=26;fillColor=none;horizontalStack=0;resizeParent=1;resizeParentMax=0;resizeLast=0;collapsible=1;marginBottom=0;whiteSpace=wrap;html=1;" vertex="1" parent="1">
          <mxGeometry x="-100" y="231.5" width="140" height="140" as="geometry" />
        </mxCell>
        <mxCell id="OjM6AyPs0dcqeUElmuwR-119" style="edgeStyle=orthogonalEdgeStyle;rounded=0;orthogonalLoop=1;jettySize=auto;html=1;exitX=1;exitY=0.5;exitDx=0;exitDy=0;endArrow=none;endFill=0;" edge="1" parent="OjM6AyPs0dcqeUElmuwR-56" source="OjM6AyPs0dcqeUElmuwR-57">
          <mxGeometry relative="1" as="geometry">
            <mxPoint x="260" y="82.78571428571422" as="targetPoint" />
          </mxGeometry>
        </mxCell>
        <mxCell id="OjM6AyPs0dcqeUElmuwR-57" value="roomID {PK}&lt;br&gt;buildingID {FK}&lt;br&gt;roomNumber&lt;br&gt;area&lt;br&gt;beds&lt;br&gt;maxOccupancy&lt;br&gt;floor" style="text;strokeColor=none;fillColor=none;align=left;verticalAlign=top;spacingLeft=4;spacingRight=4;overflow=hidden;rotatable=0;points=[[0,0.5],[1,0.5]];portConstraint=eastwest;whiteSpace=wrap;html=1;" vertex="1" parent="OjM6AyPs0dcqeUElmuwR-56">
          <mxGeometry y="26" width="140" height="114" as="geometry" />
        </mxCell>
        <mxCell id="OjM6AyPs0dcqeUElmuwR-58" value="assigned" style="resizable=0;html=1;align=right;verticalAlign=bottom;labelBackgroundColor=none;fontFamily=Helvetica;fontSize=11;fontColor=default;" connectable="0" vertex="1" parent="1">
          <mxGeometry x="138.99999999999977" y="300" as="geometry">
            <mxPoint x="-6" y="-2" as="offset" />
          </mxGeometry>
        </mxCell>
        <mxCell id="OjM6AyPs0dcqeUElmuwR-59" value="0..*" style="resizable=0;html=1;align=left;verticalAlign=bottom;labelBackgroundColor=none;fontFamily=Helvetica;fontSize=11;fontColor=default;direction=west;" connectable="0" vertex="1" parent="1">
          <mxGeometry x="132" y="319" as="geometry">
            <mxPoint x="2" y="-18" as="offset" />
          </mxGeometry>
        </mxCell>
        <mxCell id="OjM6AyPs0dcqeUElmuwR-60" value="1..1" style="resizable=0;html=1;align=left;verticalAlign=top;labelBackgroundColor=none;fontFamily=Helvetica;fontSize=11;fontColor=default;" connectable="0" vertex="1" parent="1">
          <mxGeometry x="39.99999999999977" y="280" as="geometry" />
        </mxCell>
        <mxCell id="OjM6AyPs0dcqeUElmuwR-61" value="1..*" style="resizable=0;html=1;align=left;verticalAlign=bottom;labelBackgroundColor=none;fontFamily=Helvetica;fontSize=11;fontColor=default;direction=south;" connectable="0" vertex="1" parent="1">
          <mxGeometry x="-20" y="227" as="geometry" />
        </mxCell>
        <mxCell id="OjM6AyPs0dcqeUElmuwR-62" value="1..1" style="resizable=0;html=1;align=left;verticalAlign=bottom;labelBackgroundColor=none;fontFamily=Helvetica;fontSize=11;fontColor=default;direction=south;" connectable="0" vertex="1" parent="1">
          <mxGeometry x="-120" y="-23" as="geometry" />
        </mxCell>
        <mxCell id="OjM6AyPs0dcqeUElmuwR-63" value="consists of" style="text;html=1;align=center;verticalAlign=middle;resizable=0;points=[];autosize=1;strokeColor=none;fillColor=none;" vertex="1" parent="1">
          <mxGeometry x="-40" y="55" width="80" height="30" as="geometry" />
        </mxCell>
        <mxCell id="OjM6AyPs0dcqeUElmuwR-64" value="" style="triangle;whiteSpace=wrap;html=1;fontFamily=Helvetica;fontSize=11;fontColor=default;fillColor=#000000;rotation=90;container=0;" vertex="1" parent="1">
          <mxGeometry x="-15" y="94" width="10" height="10" as="geometry" />
        </mxCell>
        <mxCell id="OjM6AyPs0dcqeUElmuwR-65" value="" style="endArrow=diamondThin;endFill=1;endSize=24;html=1;rounded=0;entryX=0.362;entryY=0.978;entryDx=0;entryDy=0;entryPerimeter=0;" edge="1" parent="1">
          <mxGeometry width="160" relative="1" as="geometry">
            <mxPoint x="-214" y="247" as="sourcePoint" />
            <mxPoint x="-214.32000000000016" y="26.032000000000153" as="targetPoint" />
          </mxGeometry>
        </mxCell>
        <mxCell id="OjM6AyPs0dcqeUElmuwR-67" value="" style="triangle;whiteSpace=wrap;html=1;fontFamily=Helvetica;fontSize=11;fontColor=default;fillColor=#000000;rotation=-180;container=0;" vertex="1" parent="1">
          <mxGeometry x="69" y="288" width="10" height="10" as="geometry" />
        </mxCell>
        <mxCell id="OjM6AyPs0dcqeUElmuwR-68" style="edgeStyle=orthogonalEdgeStyle;rounded=0;orthogonalLoop=1;jettySize=auto;html=1;endArrow=none;endFill=0;" edge="1" parent="1">
          <mxGeometry relative="1" as="geometry">
            <mxPoint x="-220" y="673" as="sourcePoint" />
            <mxPoint x="443" y="643" as="targetPoint" />
            <Array as="points">
              <mxPoint x="443" y="673" />
            </Array>
          </mxGeometry>
        </mxCell>
        <mxCell id="OjM6AyPs0dcqeUElmuwR-69" value="" style="endArrow=none;html=1;rounded=0;exitX=0.75;exitY=0;exitDx=0;exitDy=0;entryX=-0.018;entryY=0.293;entryDx=0;entryDy=0;entryPerimeter=0;" edge="1" parent="1" source="OjM6AyPs0dcqeUElmuwR-23" target="OjM6AyPs0dcqeUElmuwR-76">
          <mxGeometry relative="1" as="geometry">
            <mxPoint x="-260" y="540" as="sourcePoint" />
            <mxPoint x="-260" y="330" as="targetPoint" />
            <Array as="points">
              <mxPoint x="-260" y="470" />
            </Array>
          </mxGeometry>
        </mxCell>
        <mxCell id="OjM6AyPs0dcqeUElmuwR-70" value="" style="triangle;whiteSpace=wrap;html=1;fontFamily=Helvetica;fontSize=11;fontColor=default;fillColor=#000000;rotation=0;container=0;" vertex="1" parent="1">
          <mxGeometry x="122" y="643" width="10" height="10" as="geometry" />
        </mxCell>
        <mxCell id="OjM6AyPs0dcqeUElmuwR-71" value="charges at" style="resizable=0;html=1;align=right;verticalAlign=bottom;labelBackgroundColor=none;fontFamily=Helvetica;fontSize=11;fontColor=default;" connectable="0" vertex="1" parent="1">
          <mxGeometry x="-200.00000000000023" y="440" as="geometry" />
        </mxCell>
        <mxCell id="OjM6AyPs0dcqeUElmuwR-72" value="" style="triangle;whiteSpace=wrap;html=1;fontFamily=Helvetica;fontSize=11;fontColor=default;fillColor=#000000;rotation=-90;container=0;" vertex="1" parent="1">
          <mxGeometry x="-230" y="406.5" width="10" height="10" as="geometry" />
        </mxCell>
        <mxCell id="OjM6AyPs0dcqeUElmuwR-73" value="rides" style="text;html=1;align=center;verticalAlign=middle;resizable=0;points=[];autosize=1;strokeColor=none;fillColor=none;" vertex="1" parent="1">
          <mxGeometry x="-440" y="500" width="50" height="30" as="geometry" />
        </mxCell>
        <mxCell id="OjM6AyPs0dcqeUElmuwR-74" value="0..1" style="text;html=1;align=center;verticalAlign=middle;resizable=0;points=[];autosize=1;strokeColor=none;fillColor=none;" vertex="1" parent="1">
          <mxGeometry x="-430" y="381.5" width="40" height="30" as="geometry" />
        </mxCell>
        <mxCell id="OjM6AyPs0dcqeUElmuwR-75" value="0..1" style="text;html=1;align=center;verticalAlign=middle;resizable=0;points=[];autosize=1;strokeColor=none;fillColor=none;" vertex="1" parent="1">
          <mxGeometry x="-255" y="500" width="40" height="30" as="geometry" />
        </mxCell>
        <mxCell id="OjM6AyPs0dcqeUElmuwR-76" value="0..1" style="text;html=1;align=center;verticalAlign=middle;resizable=0;points=[];autosize=1;strokeColor=none;fillColor=none;" vertex="1" parent="1">
          <mxGeometry x="-260" y="341.5" width="40" height="30" as="geometry" />
        </mxCell>
        <mxCell id="OjM6AyPs0dcqeUElmuwR-77" value="0..*" style="text;html=1;align=center;verticalAlign=middle;resizable=0;points=[];autosize=1;strokeColor=none;fillColor=none;" vertex="1" parent="1">
          <mxGeometry x="-424" y="603" width="40" height="30" as="geometry" />
        </mxCell>
        <mxCell id="OjM6AyPs0dcqeUElmuwR-78" value="" style="triangle;whiteSpace=wrap;html=1;fontFamily=Helvetica;fontSize=11;fontColor=default;fillColor=#000000;rotation=-90;container=0;" vertex="1" parent="1">
          <mxGeometry x="-424" y="468" width="10" height="10" as="geometry" />
        </mxCell>
        <mxCell id="OjM6AyPs0dcqeUElmuwR-130" style="edgeStyle=orthogonalEdgeStyle;rounded=0;orthogonalLoop=1;jettySize=auto;html=1;exitX=0.5;exitY=0;exitDx=0;exitDy=0;entryX=1;entryY=0.5;entryDx=0;entryDy=0;endArrow=none;endFill=0;" edge="1" parent="1" source="OjM6AyPs0dcqeUElmuwR-79" target="OjM6AyPs0dcqeUElmuwR-112">
          <mxGeometry relative="1" as="geometry" />
        </mxCell>
        <mxCell id="OjM6AyPs0dcqeUElmuwR-79" value="Notification" style="swimlane;fontStyle=0;childLayout=stackLayout;horizontal=1;startSize=26;fillColor=none;horizontalStack=0;resizeParent=1;resizeParentMax=0;resizeLast=0;collapsible=1;marginBottom=0;whiteSpace=wrap;html=1;" vertex="1" parent="1">
          <mxGeometry x="840" y="22" width="140" height="130" as="geometry" />
        </mxCell>
        <mxCell id="OjM6AyPs0dcqeUElmuwR-80" value="notificationID {PK}&lt;br&gt;creationTime&lt;br&gt;type&lt;br&gt;content&lt;br&gt;status&lt;br&gt;deliveryID {FK}" style="text;strokeColor=none;fillColor=none;align=left;verticalAlign=top;spacingLeft=4;spacingRight=4;overflow=hidden;rotatable=0;points=[[0,0.5],[1,0.5]];portConstraint=eastwest;whiteSpace=wrap;html=1;" vertex="1" parent="OjM6AyPs0dcqeUElmuwR-79">
          <mxGeometry y="26" width="140" height="104" as="geometry" />
        </mxCell>
        <mxCell id="OjM6AyPs0dcqeUElmuwR-128" style="edgeStyle=orthogonalEdgeStyle;rounded=0;orthogonalLoop=1;jettySize=auto;html=1;exitX=0.5;exitY=0;exitDx=0;exitDy=0;endArrow=none;endFill=0;entryX=1.075;entryY=0.119;entryDx=0;entryDy=0;entryPerimeter=0;" edge="1" parent="1" source="OjM6AyPs0dcqeUElmuwR-81" target="OjM6AyPs0dcqeUElmuwR-100">
          <mxGeometry relative="1" as="geometry">
            <mxPoint x="895.7142857142858" y="140" as="targetPoint" />
          </mxGeometry>
        </mxCell>
        <mxCell id="OjM6AyPs0dcqeUElmuwR-81" value="Delivery" style="swimlane;fontStyle=0;childLayout=stackLayout;horizontal=1;startSize=26;fillColor=none;horizontalStack=0;resizeParent=1;resizeParentMax=0;resizeLast=0;collapsible=1;marginBottom=0;whiteSpace=wrap;html=1;" vertex="1" parent="1">
          <mxGeometry x="810" y="420" width="170" height="190" as="geometry" />
        </mxCell>
        <mxCell id="OjM6AyPs0dcqeUElmuwR-82" value="deliveryID {PK}&lt;br&gt;type&lt;br&gt;status&lt;br&gt;currentLocation&lt;br&gt;arrivalTime&lt;br&gt;estimatedDeliveryTime&lt;br&gt;deliveredTime&lt;br&gt;guestFeedback&lt;br&gt;guestRating&lt;br&gt;packageID {FK}" style="text;strokeColor=none;fillColor=none;align=left;verticalAlign=top;spacingLeft=4;spacingRight=4;overflow=hidden;rotatable=0;points=[[0,0.5],[1,0.5]];portConstraint=eastwest;whiteSpace=wrap;html=1;" vertex="1" parent="OjM6AyPs0dcqeUElmuwR-81">
          <mxGeometry y="26" width="170" height="164" as="geometry" />
        </mxCell>
        <mxCell id="OjM6AyPs0dcqeUElmuwR-83" value="tracks" style="text;html=1;align=center;verticalAlign=middle;resizable=0;points=[];autosize=1;strokeColor=none;fillColor=none;" vertex="1" parent="1">
          <mxGeometry x="640" y="484" width="60" height="30" as="geometry" />
        </mxCell>
        <mxCell id="OjM6AyPs0dcqeUElmuwR-84" value="1..1" style="text;html=1;align=center;verticalAlign=middle;resizable=0;points=[];autosize=1;strokeColor=none;fillColor=none;" vertex="1" parent="1">
          <mxGeometry x="770" y="484" width="40" height="30" as="geometry" />
        </mxCell>
        <mxCell id="OjM6AyPs0dcqeUElmuwR-85" value="1..1" style="text;html=1;align=center;verticalAlign=middle;resizable=0;points=[];autosize=1;strokeColor=none;fillColor=none;" vertex="1" parent="1">
          <mxGeometry x="510" y="484" width="40" height="30" as="geometry" />
        </mxCell>
        <mxCell id="OjM6AyPs0dcqeUElmuwR-86" value="" style="triangle;whiteSpace=wrap;html=1;fontFamily=Helvetica;fontSize=11;fontColor=default;fillColor=#000000;rotation=-180;container=0;" vertex="1" parent="1">
          <mxGeometry x="610" y="494" width="10" height="10" as="geometry" />
        </mxCell>
        <mxCell id="OjM6AyPs0dcqeUElmuwR-87" value="Supplier" style="swimlane;fontStyle=0;childLayout=stackLayout;horizontal=1;startSize=26;fillColor=none;horizontalStack=0;resizeParent=1;resizeParentMax=0;resizeLast=0;collapsible=1;marginBottom=0;whiteSpace=wrap;html=1;" vertex="1" parent="1">
          <mxGeometry x="69" y="398" width="140" height="192" as="geometry" />
        </mxCell>
        <mxCell id="OjM6AyPs0dcqeUElmuwR-88" value="supplierID {PK}&lt;br&gt;name&lt;br&gt;email&lt;br&gt;phone&lt;br&gt;address&amp;nbsp;&lt;br&gt;&lt;blockquote style=&quot;margin: 0 0 0 40px; border: none; padding: 0px;&quot;&gt;street&lt;br&gt;city&lt;br&gt;state&lt;br&gt;country&lt;br&gt;zip&lt;/blockquote&gt;" style="text;strokeColor=none;fillColor=none;align=left;verticalAlign=top;spacingLeft=4;spacingRight=4;overflow=hidden;rotatable=0;points=[[0,0.5],[1,0.5]];portConstraint=eastwest;whiteSpace=wrap;html=1;" vertex="1" parent="OjM6AyPs0dcqeUElmuwR-87">
          <mxGeometry y="26" width="140" height="166" as="geometry" />
        </mxCell>
        <mxCell id="OjM6AyPs0dcqeUElmuwR-89" value="sends" style="text;html=1;align=center;verticalAlign=middle;resizable=0;points=[];autosize=1;strokeColor=none;fillColor=none;" vertex="1" parent="1">
          <mxGeometry x="230" y="470" width="60" height="30" as="geometry" />
        </mxCell>
        <mxCell id="OjM6AyPs0dcqeUElmuwR-90" value="1..1" style="text;html=1;align=center;verticalAlign=middle;resizable=0;points=[];autosize=1;strokeColor=none;fillColor=none;" vertex="1" parent="1">
          <mxGeometry x="200" y="468" width="40" height="30" as="geometry" />
        </mxCell>
        <mxCell id="OjM6AyPs0dcqeUElmuwR-91" value="1..*" style="text;html=1;align=center;verticalAlign=middle;resizable=0;points=[];autosize=1;strokeColor=none;fillColor=none;" vertex="1" parent="1">
          <mxGeometry x="320" y="468" width="40" height="30" as="geometry" />
        </mxCell>
        <mxCell id="OjM6AyPs0dcqeUElmuwR-94" value="1..1" style="text;html=1;align=center;verticalAlign=middle;resizable=0;points=[];autosize=1;strokeColor=none;fillColor=none;" vertex="1" parent="1">
          <mxGeometry x="480" y="-70" width="40" height="30" as="geometry" />
        </mxCell>
        <mxCell id="OjM6AyPs0dcqeUElmuwR-95" value="" style="triangle;whiteSpace=wrap;html=1;fillColor=#121111;strokeColor=none;" vertex="1" parent="1">
          <mxGeometry x="290" y="480" width="10" height="10" as="geometry" />
        </mxCell>
        <mxCell id="OjM6AyPs0dcqeUElmuwR-96" value="notifies" style="text;html=1;align=center;verticalAlign=middle;resizable=0;points=[];autosize=1;strokeColor=none;fillColor=none;" vertex="1" parent="1">
          <mxGeometry x="550" y="-110" width="60" height="30" as="geometry" />
        </mxCell>
        <mxCell id="OjM6AyPs0dcqeUElmuwR-98" value="1..1" style="text;html=1;align=center;verticalAlign=middle;resizable=0;points=[];autosize=1;strokeColor=none;fillColor=none;" vertex="1" parent="1">
          <mxGeometry x="852" y="386" width="40" height="30" as="geometry" />
        </mxCell>
        <mxCell id="OjM6AyPs0dcqeUElmuwR-99" value="1..1" style="text;html=1;align=center;verticalAlign=middle;resizable=0;points=[];autosize=1;strokeColor=none;fillColor=none;" vertex="1" parent="1">
          <mxGeometry x="860" y="-8" width="40" height="30" as="geometry" />
        </mxCell>
        <mxCell id="OjM6AyPs0dcqeUElmuwR-100" value="1..*" style="text;html=1;align=center;verticalAlign=middle;resizable=0;points=[];autosize=1;strokeColor=none;fillColor=none;" vertex="1" parent="1">
          <mxGeometry x="852" y="151" width="40" height="30" as="geometry" />
        </mxCell>
        <mxCell id="OjM6AyPs0dcqeUElmuwR-101" value="creates" style="text;html=1;align=center;verticalAlign=middle;resizable=0;points=[];autosize=1;strokeColor=none;fillColor=none;" vertex="1" parent="1">
          <mxGeometry x="840" y="319" width="60" height="30" as="geometry" />
        </mxCell>
        <mxCell id="OjM6AyPs0dcqeUElmuwR-102" value="" style="triangle;whiteSpace=wrap;html=1;fontFamily=Helvetica;fontSize=11;fontColor=default;fillColor=#000000;rotation=-90;container=0;" vertex="1" parent="1">
          <mxGeometry x="867" y="309" width="10" height="10" as="geometry" />
        </mxCell>
        <mxCell id="OjM6AyPs0dcqeUElmuwR-103" style="edgeStyle=orthogonalEdgeStyle;rounded=0;orthogonalLoop=1;jettySize=auto;html=1;entryX=-0.004;entryY=0.399;entryDx=0;entryDy=0;entryPerimeter=0;endArrow=none;endFill=0;" edge="1" parent="1" source="OjM6AyPs0dcqeUElmuwR-14" target="OjM6AyPs0dcqeUElmuwR-13">
          <mxGeometry relative="1" as="geometry">
            <Array as="points">
              <mxPoint x="460" y="300" />
            </Array>
          </mxGeometry>
        </mxCell>
        <mxCell id="OjM6AyPs0dcqeUElmuwR-104" style="edgeStyle=orthogonalEdgeStyle;rounded=0;orthogonalLoop=1;jettySize=auto;html=1;exitX=0;exitY=0.25;exitDx=0;exitDy=0;entryX=-0.004;entryY=0.866;entryDx=0;entryDy=0;entryPerimeter=0;endArrow=none;endFill=0;" edge="1" parent="1" source="OjM6AyPs0dcqeUElmuwR-44" target="OjM6AyPs0dcqeUElmuwR-24">
          <mxGeometry relative="1" as="geometry">
            <Array as="points">
              <mxPoint x="-569" y="-26" />
              <mxPoint x="-569" y="680" />
            </Array>
          </mxGeometry>
        </mxCell>
        <mxCell id="OjM6AyPs0dcqeUElmuwR-105" value="" style="triangle;whiteSpace=wrap;html=1;fontFamily=Helvetica;fontSize=11;fontColor=default;fillColor=#000000;rotation=90;container=0;" vertex="1" parent="1">
          <mxGeometry x="-593" y="323" width="10" height="10" as="geometry" />
        </mxCell>
        <mxCell id="OjM6AyPs0dcqeUElmuwR-106" value="holds" style="text;html=1;align=center;verticalAlign=middle;resizable=0;points=[];autosize=1;strokeColor=none;fillColor=none;" vertex="1" parent="1">
          <mxGeometry x="-620" y="297" width="50" height="30" as="geometry" />
        </mxCell>
        <mxCell id="OjM6AyPs0dcqeUElmuwR-107" value="1..1" style="resizable=0;html=1;align=left;verticalAlign=bottom;labelBackgroundColor=none;fontFamily=Helvetica;fontSize=11;fontColor=default;direction=south;" connectable="0" vertex="1" parent="1">
          <mxGeometry x="-321" y="-55" as="geometry">
            <mxPoint x="-4" y="26" as="offset" />
          </mxGeometry>
        </mxCell>
        <mxCell id="OjM6AyPs0dcqeUElmuwR-108" value="1..*" style="resizable=0;html=1;align=left;verticalAlign=bottom;labelBackgroundColor=none;fontFamily=Helvetica;fontSize=11;fontColor=default;direction=south;" connectable="0" vertex="1" parent="1">
          <mxGeometry x="-406" y="673" as="geometry">
            <mxPoint x="-4" y="26" as="offset" />
          </mxGeometry>
        </mxCell>
        <mxCell id="OjM6AyPs0dcqeUElmuwR-109" value="UserNotification" style="swimlane;fontStyle=0;childLayout=stackLayout;horizontal=1;startSize=26;fillColor=none;horizontalStack=0;resizeParent=1;resizeParentMax=0;resizeLast=0;collapsible=1;marginBottom=0;whiteSpace=wrap;html=1;" vertex="1" parent="1">
          <mxGeometry x="650" y="-130" width="120" height="100" as="geometry" />
        </mxCell>
        <mxCell id="OjM6AyPs0dcqeUElmuwR-112" value="userID {PPK}&lt;br&gt;notificationID {PPK}" style="text;strokeColor=none;fillColor=none;align=left;verticalAlign=top;spacingLeft=4;spacingRight=4;overflow=hidden;rotatable=0;points=[[0,0.5],[1,0.5]];portConstraint=eastwest;whiteSpace=wrap;html=1;" vertex="1" parent="OjM6AyPs0dcqeUElmuwR-109">
          <mxGeometry y="26" width="120" height="74" as="geometry" />
        </mxCell>
        <mxCell id="OjM6AyPs0dcqeUElmuwR-6" value="userID {PK}&lt;br&gt;firstName&lt;br&gt;lastName&lt;br&gt;email&lt;br style=&quot;border-color: var(--border-color);&quot;&gt;phone&lt;br&gt;address&lt;br&gt;&lt;blockquote style=&quot;margin: 0 0 0 40px; border: none; padding: 0px;&quot;&gt;street&lt;br&gt;city&lt;br&gt;state&lt;br&gt;country&lt;br&gt;zip&lt;/blockquote&gt;creationTime&lt;br&gt;lastLoggedIn&lt;br&gt;role&lt;br&gt;" style="text;strokeColor=none;fillColor=none;align=left;verticalAlign=top;spacingLeft=4;spacingRight=4;overflow=hidden;rotatable=0;points=[[0,0.5],[1,0.5]];portConstraint=eastwest;whiteSpace=wrap;html=1;" vertex="1" parent="1">
          <mxGeometry x="346" y="-96" width="140" height="209" as="geometry" />
        </mxCell>
        <mxCell id="OjM6AyPs0dcqeUElmuwR-129" style="edgeStyle=orthogonalEdgeStyle;rounded=0;orthogonalLoop=1;jettySize=auto;html=1;exitX=0;exitY=0.5;exitDx=0;exitDy=0;entryX=1.003;entryY=0.139;entryDx=0;entryDy=0;entryPerimeter=0;endArrow=none;endFill=0;" edge="1" parent="1" source="OjM6AyPs0dcqeUElmuwR-112" target="OjM6AyPs0dcqeUElmuwR-6">
          <mxGeometry relative="1" as="geometry" />
        </mxCell>
        <mxCell id="OjM6AyPs0dcqeUElmuwR-133" value="0..*" style="text;html=1;align=center;verticalAlign=middle;resizable=0;points=[];autosize=1;strokeColor=none;fillColor=none;" vertex="1" parent="1">
          <mxGeometry x="610" y="-73" width="40" height="30" as="geometry" />
        </mxCell>
        <mxCell id="OjM6AyPs0dcqeUElmuwR-139" value="" style="triangle;whiteSpace=wrap;html=1;direction=west;strokeColor=#000000;fillColor=#000000;" vertex="1" parent="1">
          <mxGeometry x="536" y="-100" width="16" height="10" as="geometry" />
        </mxCell>
        <mxCell id="OjM6AyPs0dcqeUElmuwR-141" value="1..1" style="text;html=1;align=center;verticalAlign=middle;resizable=0;points=[];autosize=1;strokeColor=none;fillColor=none;" vertex="1" parent="1">
          <mxGeometry x="760" y="-72" width="40" height="30" as="geometry" />
        </mxCell>
        <mxCell id="OjM6AyPs0dcqeUElmuwR-142" value="creates" style="text;html=1;align=center;verticalAlign=middle;resizable=0;points=[];autosize=1;strokeColor=none;fillColor=none;" vertex="1" parent="1">
          <mxGeometry x="820" y="-108.5" width="60" height="30" as="geometry" />
        </mxCell>
        <mxCell id="OjM6AyPs0dcqeUElmuwR-143" value="" style="triangle;whiteSpace=wrap;html=1;direction=west;strokeColor=#000000;fillColor=#000000;" vertex="1" parent="1">
          <mxGeometry x="810" y="-100" width="10" height="13" as="geometry" />
        </mxCell>
      </root>
    </mxGraphModel>
  </diagram>
</mxfile>
